<svg xmlns="http://www.w3.org/2000/svg" width="80" height="80" fill="none" viewBox="0 0 90 90"><mask id="a" width="90" height="90" x="0" y="0" maskUnits="userSpaceOnUse"><rect width="90" height="90" fill="#FFF" rx="180"/></mask><g mask="url(#a)"><path fill="#0a0310" d="M0 0h90v45H0z"/><path fill="#49007e" d="M0 45h90v45H0zM83 45a38 38 0 0 0-76 0h76z"/><path fill="#ff005b" d="M83 45a38 38 0 0 1-76 0h76zM77 45a32 32 0 1 0-64 0h64z"/><path fill="#ff7d10" d="M77 45a32 32 0 1 1-64 0h64zM71 45a26 26 0 0 0-52 0h52z"/><path fill="#0a0310" d="M71 45a26 26 0 0 1-52 0h52z"/><circle cx="45" cy="45" r="23" fill="#ffb238"/></g></svg>