<?xml version="1.0" encoding="iso-8859-1"?>
<!-- Generator: Adobe Illustrator 19.0.0, SVG Export Plug-In . SVG Version: 6.00 Build 0)  -->
<svg version="1.1" id="Layer_1" xmlns="http://www.w3.org/2000/svg" xmlns:xlink="http://www.w3.org/1999/xlink" x="0px" y="0px"
	 viewBox="0 0 512.065 512.065" style="enable-background:new 0 0 512.065 512.065;" xml:space="preserve">
<g transform="translate(0 -1)">
	<g>
		<g>
			<path d="M437.306,236.734c-2.602,1.509-4.143,2.377-5.688,3.187c-85.661,44.923-189.894,8.612-233.056-81.658
				c-19.572-40.956-23.671-87.113-12.439-130.52c4.733-18.289-14.886-33.25-31.271-23.848
				C53.116,62.277,13.623,194.115,65.477,302.556c14.695,30.697,35.695,57.016,61.534,77.799c9.181,7.384,22.61,5.928,29.994-3.253
				c7.384-9.181,5.928-22.61-3.253-29.994c-20.904-16.814-37.875-38.083-49.787-62.967
				c-34.832-72.844-19.134-158.656,33.378-213.027c-0.764,36.067,6.79,72.207,22.723,105.549
				c46.679,97.624,152.086,144.69,249.507,117.65c-11.305,20.261-26.328,38.236-44.424,52.799
				c-9.179,7.387-10.631,20.816-3.244,29.995s20.816,10.631,29.995,3.244c37.714-30.353,64.534-72.51,76.762-119.825
				C473.401,242.193,453.685,227.234,437.306,236.734z"/>
			<path d="M337.768,373.232c-6.536-9.803-19.781-12.452-29.584-5.917l-30.833,20.555v-24.138c0-11.782-9.551-21.333-21.333-21.333
				c-11.782,0-21.333,9.551-21.333,21.333v24.138l-30.833-20.555c-9.803-6.536-23.049-3.886-29.584,5.917
				c-6.536,9.803-3.886,23.049,5.917,29.584l37.374,24.916l-37.374,24.916c-9.803,6.536-12.452,19.781-5.917,29.584
				c6.536,9.803,19.781,12.452,29.584,5.917l30.833-20.555v24.138c0,11.782,9.551,21.333,21.333,21.333
				c11.782,0,21.333-9.551,21.333-21.333v-24.138l30.833,20.555c9.803,6.536,23.049,3.886,29.584-5.917
				c6.536-9.803,3.886-23.049-5.917-29.584l-37.374-24.916l37.374-24.916C341.654,396.28,344.303,383.035,337.768,373.232z"/>
		</g>
	</g>
</g>
<g>
</g>
<g>
</g>
<g>
</g>
<g>
</g>
<g>
</g>
<g>
</g>
<g>
</g>
<g>
</g>
<g>
</g>
<g>
</g>
<g>
</g>
<g>
</g>
<g>
</g>
<g>
</g>
<g>
</g>
</svg>
