<?xml version="1.0" encoding="iso-8859-1"?>
<!-- Generator: Adobe Illustrator 19.0.0, SVG Export Plug-In . SVG Version: 6.00 Build 0)  -->
<svg version="1.1" id="Capa_1" xmlns="http://www.w3.org/2000/svg" xmlns:xlink="http://www.w3.org/1999/xlink" x="0px" y="0px"
	 viewBox="0 0 47.167 47.167" style="enable-background:new 0 0 47.167 47.167;" xml:space="preserve">

<g>
  <path id="svg_1" fill="#BDC3C7" d="m46.369,28.793c-11.852,5.935 -26.271,1.138 -32.206,-10.714c-2.748,-5.488 -3.191,-11.524 -1.702,-17.016c-11.264,6.173 -15.716,20.2 -9.917,31.781c5.935,11.852 20.354,16.649 32.206,10.714c6.364,-3.187 10.69,-8.821 12.417,-15.19c-0.264,0.145 -0.527,0.29 -0.798,0.425z"/>
  <g stroke="null">
   <path stroke="null" d="m40.487125,20.725287l-8.256181,-4.336878l8.256181,-4.336878c0.551468,-0.289685 0.740415,-0.931299 0.422018,-1.433037c-0.318397,-0.501738 -1.023605,-0.673716 -1.575073,-0.383962l-8.256489,4.337018l0,-8.673897c0,-0.579369 -0.516261,-1.049076 -1.153055,-1.049076s-1.153055,0.469706 -1.153055,1.049076l0,8.673547l-8.25572,-4.336669c-0.551545,-0.289825 -1.256753,-0.117846 -1.575073,0.383962c-0.318397,0.501738 -0.12945,1.143352 0.422018,1.433037l8.256181,4.336878l-8.256181,4.336878c-0.551468,0.289685 -0.740415,0.931299 -0.422018,1.433037c0.213546,0.336613 0.601126,0.524678 0.999622,0.524678c0.195635,0 0.393884,-0.04532 0.575451,-0.140716l8.25572,-4.336669l0,8.673547c0,0.579369 0.516261,1.049076 1.153055,1.049076s1.153055,-0.469706 1.153055,-1.049076l0,-8.673897l8.256489,4.337018c0.181568,0.095396 0.379816,0.140716 0.575451,0.140716c0.398496,0 0.786153,-0.188134 0.999622,-0.524678c0.318474,-0.501738 0.129527,-1.143352 -0.422018,-1.433037z" id="svg_21"/>
   <g stroke="null" transform="matrix(0.07687033444830715,0,0,0.06993837144243156,-21.718472973550995,-22.113572583464524) " id="svg_23"/>
   <g stroke="null" transform="matrix(0.07687033444830715,0,0,0.06993837144243156,-21.718472973550995,-22.113572583464524) " id="svg_24"/>
   <g stroke="null" transform="matrix(0.07687033444830715,0,0,0.06993837144243156,-21.718472973550995,-22.113572583464524) " id="svg_25"/>
   <g stroke="null" transform="matrix(0.07687033444830715,0,0,0.06993837144243156,-21.718472973550995,-22.113572583464524) " id="svg_26"/>
   <g stroke="null" transform="matrix(0.07687033444830715,0,0,0.06993837144243156,-21.718472973550995,-22.113572583464524) " id="svg_27"/>
   <g stroke="null" transform="matrix(0.07687033444830715,0,0,0.06993837144243156,-21.718472973550995,-22.113572583464524) " id="svg_28"/>
   <g stroke="null" transform="matrix(0.07687033444830715,0,0,0.06993837144243156,-21.718472973550995,-22.113572583464524) " id="svg_29"/>
   <g stroke="null" transform="matrix(0.07687033444830715,0,0,0.06993837144243156,-21.718472973550995,-22.113572583464524) " id="svg_30"/>
   <g stroke="null" transform="matrix(0.07687033444830715,0,0,0.06993837144243156,-21.718472973550995,-22.113572583464524) " id="svg_31"/>
   <g stroke="null" transform="matrix(0.07687033444830715,0,0,0.06993837144243156,-21.718472973550995,-22.113572583464524) " id="svg_32"/>
   <g stroke="null" transform="matrix(0.07687033444830715,0,0,0.06993837144243156,-21.718472973550995,-22.113572583464524) " id="svg_33"/>
   <g stroke="null" transform="matrix(0.07687033444830715,0,0,0.06993837144243156,-21.718472973550995,-22.113572583464524) " id="svg_34"/>
   <g stroke="null" transform="matrix(0.07687033444830715,0,0,0.06993837144243156,-21.718472973550995,-22.113572583464524) " id="svg_35"/>
   <g stroke="null" transform="matrix(0.07687033444830715,0,0,0.06993837144243156,-21.718472973550995,-22.113572583464524) " id="svg_36"/>
   <g stroke="null" transform="matrix(0.07687033444830715,0,0,0.06993837144243156,-21.718472973550995,-22.113572583464524) " id="svg_37"/>
  </g>
 </g>
</svg>